<?xml version="1.0" encoding="utf-8"?>
<!-- Generator: Adobe Illustrator 25.0.0, SVG Export Plug-In . SVG Version: 6.00 Build 0)  -->
<svg version="1.1" id="Layer_1" xmlns="http://www.w3.org/2000/svg" xmlns:xlink="http://www.w3.org/1999/xlink" x="0px" y="0px"
	 viewBox="0 0 1920 1080" style="enable-background:new 0 0 1920 1080;" xml:space="preserve">
<style type="text/css">
	.st0{clip-path:url(#SVGID_2_);}
	.st1{fill:none;stroke:#C8E8D5;stroke-miterlimit:10;}
</style>
<g>
	<defs>
		<rect id="SVGID_1_" width="1920" height="1080"/>
	</defs>
	<clipPath id="SVGID_2_">
		<use xlink:href="#SVGID_1_"  style="overflow:visible;"/>
	</clipPath>
	<g class="st0">
		<path class="st1" d="M-284.06,900.12c-15.23-57.39,2.83-119.62,48.29-166.35s117.58-77.17,192.74-81.39
			c67.09-3.76,133.11,12.27,199.91,18.41c188.53,17.31,393.68-57.48,471.13-192.27c28.19-49.02,44.43-108.59,104.14-135.55
			c66.56-30.05,151.89-2.63,212.91,33.83c61.02,36.46,116.77,83.37,191.7,97.04c88.38,16.14,180.69-19.76,244.45-70.01
			c63.76-50.25,106.61-113.85,158.29-171.87c11.48-12.88,25.02-26.36,44.48-30.3c16.79-3.38,34.39,1.07,50.66,5.73
			c56.89,16.28,112.25,35.62,165.7,57.86c47.71,19.85,98,42.77,151.86,38.66c123.83-9.45,170.8-147.76,292.03-169.73"/>
		<path class="st1" d="M-259.9,921.63c-15.55-56.76,1.61-120.22,45.69-168.59s114.52-80.19,188.03-85.83
			c60.76-4.66,121.17,6.12,182.29,11.33c5.33,0.45,10.67,0.85,16.01,1.21c10.32,0.67,20.72,1.09,31.19,1.27
			c35.04,0.72,70.08-1.26,104.62-5.92c66.35-9.21,129.42-29.29,185.02-58.91c55.48-29.66,101.96-68.45,133.93-114.84
			c5.08-7.41,9.79-15.02,14.14-22.84c13.71-24.53,24.83-51.6,40.07-75.8c15.73-25.02,35.68-46.98,66.45-60.9
			c65.48-29.6,149.26-3.1,209.28,32.14s114.85,80.65,188.37,93.62c86.72,15.3,177.24-20.19,239.87-69.71
			c42.43-33.55,75.49-73.1,108.19-112.88c15.56-18.92,31.04-37.89,47.42-56.3c11.29-12.69,24.53-25.94,43.65-29.91
			c16.45-3.38,33.72,0.85,49.64,5.29c55.71,15.53,109.96,34.05,162.38,55.41c46.78,19.07,96.03,41.11,148.79,36.79
			c121.31-9.93,167.69-145.56,286.5-167.66"/>
		<path class="st1" d="M-235.73,943.14c-15.86-56.12,0.38-120.82,43.16-170.86c42.78-50.04,111.52-83.14,183.33-90.23
			c59.83-5.92,119.82,2.41,180.72,5.88c5.32,0.3,10.64,0.56,15.97,0.76c10.3,0.39,20.7,0.56,31.21,0.52
			c34.81-0.08,70.78-1.95,105.73-7.09c66.72-9.93,129.8-31.21,184.69-62.33c54.68-30.92,99.81-70.81,131.17-118.1
			c5-7.54,9.66-15.27,13.97-23.21c13.58-25.01,24.84-52.44,40.65-76.79c16.32-25.15,37.08-46.91,68.23-60.99
			c64.41-29.09,146.63-3.59,205.61,30.45c58.99,34.04,112.94,77.94,185.06,90.2c85.05,14.46,173.78-20.62,235.28-69.36
			c41.68-33.06,74.17-71.96,106.33-111.09c15.3-18.61,30.46-37.28,46.62-55.39c11.09-12.48,24.07-25.54,42.8-29.51
			c16.11-3.38,33,0.62,48.62,4.86c54.54,14.76,107.69,32.44,159.08,52.91c45.81,18.27,94.07,39.44,145.78,34.92
			c118.79-10.4,164.53-143.36,280.95-165.6"/>
		<path class="st1" d="M-211.55,964.65c-16.18-55.48-0.85-121.42,40.58-173.08c41.43-51.66,108.55-86.28,178.62-94.73
			c59-7.1,118.49-1.29,179.18,0.45c5.3,0.15,10.61,0.25,15.92,0.31c10.28,0.11,20.67,0,31.24-0.24
			c35.01-0.85,71.51-2.77,106.82-8.25c68.11-10.56,131.35-33.99,184.36-65.76c54.16-32.29,98.07-73.79,128.37-121.34
			c4.91-7.68,9.49-15.56,13.75-23.62c13.42-25.48,24.84-53.24,41.24-77.78c16.87-25.24,38.51-46.82,70.06-61.09
			c63.35-28.61,143.99-4.07,202,28.76s111.04,75.23,181.74,86.78c83.4,13.63,170.33-21.05,230.7-69.1
			c40.9-32.56,72.89-70.81,104.44-109.31c15.03-18.31,29.99-36.67,45.8-54.5c10.88-12.28,23.64-25.11,41.96-29.11
			c15.77-3.43,32.3,0.41,47.6,4.42c53.34,14.02,105.37,30.9,155.72,50.51c44.86,17.48,92.1,37.78,142.68,33.04
			c116.26-10.88,161.38-141.17,275.41-163.54"/>
		<path class="st1" d="M-187.39,986.15c-16.48-54.84-2.07-122.02,38.01-175.32c40.08-53.19,105.61-89.34,173.92-99.13
			c58.18-8.34,117.14-5.01,177.62-5c5.27,0,10.55-0.04,15.86-0.13c10.26-0.17,20.67-0.53,31.28-0.99
			c35.18-1.51,72.24-3.59,107.92-9.41c68.82-11.22,131.84-36.13,184.04-69.17c52.99-33.44,95.52-75.53,125.65-124.58
			c4.81-7.82,9.31-15.83,13.52-24.04c13.29-25.93,24.85-54.07,41.83-78.76c17.41-25.38,39.84-46.79,71.8-61.24
			c62.28-28.13,141.36-4.56,198.38,27.07s109.12,72.51,178.41,83.35c81.73,12.79,166.87-21.49,226.1-68.79
			c40.14-32.06,71.55-69.68,102.61-107.52c14.77-18.01,29.47-36.06,45-53.59c10.69-12.08,23.19-24.7,41.13-28.72
			c15.43-3.46,31.55,0.18,46.56,3.98c52.16,13.28,103.09,29.33,152.4,48.06c43.91,16.68,90.13,36.12,139.6,31.17
			c113.74-11.36,158.23-138.97,269.88-161.47"/>
		<path class="st1" d="M-163.22,1007.66c-16.8-54.21-3.26-122.65,35.43-177.56c38.74-54.78,102.7-92.44,169.21-103.57
			c57.41-9.6,115.81-8.72,176.06-10.45c5.25-0.14,10.53-0.33,15.82-0.57c10.24-0.45,20.67-1.07,31.3-1.75
			c35.36-2.22,72.98-4.41,109.03-10.56c69.52-11.84,132.33-38.28,183.7-72.6c52.15-34.68,93.38-77.89,122.93-127.82
			c4.71-7.97,9.14-16.12,13.3-24.45c13.14-26.39,24.85-54.9,42.43-79.75c17.94-25.53,41.23-46.73,73.6-61.37
			c61.22-27.65,138.73-5.03,194.73,25.38s107.21,69.8,175.15,79.92c80.07,11.96,163.41-21.92,221.51-68.51
			c39.38-31.56,70.25-68.51,100.75-105.73c14.51-17.7,28.95-35.45,44.19-52.7c10.49-11.84,22.75-24.28,40.25-28.31
			c15.09-3.48,30.9-0.05,45.54,3.54c50.97,12.52,100.77,27.76,149.04,45.61c42.96,15.88,88.12,34.45,136.54,29.31
			c111.22-11.84,155.07-136.78,264.36-159.42"/>
		<path class="st1" d="M-139.06,1029.17c-17.09-53.58-4.51-123.23,32.87-179.8c37.39-56.38,99.81-95.58,164.51-108.01
			c56.66-10.87,114.47-12.42,174.51-15.85c5.23-0.3,10.48-0.64,15.77-1.02c10.22-0.74,20.6-1.62,31.32-2.54
			c35.52-2.93,73.7-5.22,110.12-11.72c70.22-12.54,132.83-40.44,183.39-76.02c51.3-35.96,91.23-80.25,120.14-131.11
			c4.61-8.1,8.96-16.39,13.05-24.86c13.05-26.85,24.86-55.73,42.99-80.74c18.49-25.65,42.62-46.67,75.38-61.49
			c60.15-27.17,136.11-5.51,191.1,23.68c54.99,29.2,105.3,67.08,171.8,76.49c78.42,11.12,159.92-22.35,216.93-68.17
			c38.61-31.06,68.93-67.4,98.88-103.95c14.25-17.39,28.43-34.84,43.39-51.79c10.3-11.68,22.3-23.87,39.45-27.91
			c14.75-3.48,30.2-0.27,44.52,3.11c49.8,11.77,98.52,26.18,145.78,43.14c42,15.09,86.22,32.78,133.48,27.43
			c108.69-12.32,151.91-134.58,258.81-157.33"/>
		<path class="st1" d="M-114.88,1050.69c-17.41-52.95-5.74-123.84,30.29-182.06c36.04-57.98,96.95-98.77,159.81-112.43
			c55.98-12.18,113.14-16.15,172.97-21.32c5.22-0.45,10.45-0.94,15.73-1.46c10.19-1.01,20.58-2.16,31.35-3.25
			c35.68-3.64,74.44-6.04,111.22-12.88c70.92-13.2,133.32-42.59,183.05-79.44c50.47-37.22,89.09-82.62,117.38-134.31
			c4.51-8.24,8.8-16.66,12.86-25.27c12.87-27.31,24.86-56.56,43.57-81.73c19.06-25.79,44.02-46.61,77.18-61.63
			c59.07-26.69,133.46-6,187.45,21.99s103.35,64.38,168.49,73.07c76.75,10.29,156.49-22.78,212.33-67.87
			c37.85-30.56,67.61-66.25,97.02-102.17c13.99-17.09,27.9-34.22,42.57-50.89c10.11-11.48,21.87-23.46,38.62-27.52
			c14.4-3.5,29.49-0.5,43.52,2.67c48.61,11.01,96.18,24.61,142.39,40.69c41.05,14.29,84.24,31.13,130.42,25.56
			c106.17-12.8,148.76-132.38,253.27-155.3"/>
		<path class="st1" d="M-90.71,1072.2c-17.72-52.34-6.97-124.44,27.71-184.29c34.7-59.6,94.12-102,155.13-116.88
			c55.34-13.53,111.79-19.85,171.4-26.75c5.2-0.6,10.41-1.24,15.68-1.91c10.17-1.29,20.56-2.7,31.37-4
			c35.9-4.36,75.18-6.86,112.32-14.05c71.62-13.85,133.81-44.74,182.77-82.89c49.54-38.45,86.87-84.95,114.53-137.53
			c4.42-8.38,8.62-16.97,12.64-25.69c12.73-27.77,24.86-57.39,44.17-82.72c19.58-25.92,45.4-46.52,78.95-61.75
			c58.02-26.22,130.84-6.49,183.85,20.3s101.48,61.66,165.16,69.65c75.06,9.46,153.04-23.21,207.79-67.57
			c37.08-30.06,66.3-65.13,95.16-100.38c13.73-16.78,27.38-33.61,41.76-49.99c9.9-11.28,21.41-23.03,37.77-27.13
			c14.08-3.52,28.8-0.71,42.43,2.25c47.44,10.27,93.92,23.05,139.11,38.25c40.1,13.53,82.28,29.47,127.36,23.68
			c103.64-13.27,145.59-130.18,247.73-153.23"/>
		<path class="st1" d="M-66.55,1093.71c-18.03-51.68-8.19-125.04,25.14-186.54c33.35-61.21,91.31-105.27,150.4-121.3
			c54.72-14.85,110.42-23.57,169.83-32.2c5.18-0.75,10.38-1.54,15.63-2.35c10.15-1.56,20.54-3.24,31.41-4.76
			c36.02-5.08,75.91-7.67,113.41-15.23c72.32-14.51,134.31-46.89,182.4-86.28c48.77-39.75,84.86-87.34,111.86-140.79
			c4.35-8.53,8.5-17.23,12.42-26.1c12.59-28.23,24.86-58.22,44.74-83.74c19.64-25.67,47.44-46.98,80.74-61.87
			c56.94-25.73,128.2-6.96,180.19,18.61s99.56,58.95,161.86,66.22c73.43,8.62,149.59-23.68,203.16-67.26
			c36.31-29.56,64.98-63.97,93.29-98.6c13.47-16.48,26.86-32.99,40.96-49.06c9.7-11.08,20.97-22.63,36.93-26.73
			c13.74-3.54,28.1-0.94,41.43,1.81c46.26,9.52,91.62,21.48,135.79,35.8c39.16,12.69,80.31,27.8,124.28,21.82
			c101.17-13.77,142.45-127.96,242.2-151.18"/>
		<path class="st1" d="M-42.38,1115.22c-18.34-51.05-9.42-125.65,22.56-188.78c32.01-62.81,88.5-108.6,145.7-125.74
			c54.13-16.23,109.09-27.27,168.28-37.64c5.16-0.9,10.33-1.84,15.58-2.79c10.13-1.85,20.52-3.78,31.44-5.51
			c36.18-5.77,76.64-8.46,114.51-16.36c73.03-15.17,134.8-49.06,182.07-89.71c47.92-41.01,82.68-89.66,109.09-144.03
			c4.22-8.67,8.29-17.51,12.2-26.52c12.45-28.68,24.87-59.06,45.33-84.69c20.67-26.16,48.17-46.44,82.54-62
			c55.86-25.25,125.56-7.44,176.54,16.92c50.98,24.36,97.66,56.23,158.54,62.8c71.8,7.78,146.14-24.08,198.58-66.96
			c35.54-29.06,63.67-62.83,91.38-96.82c13.21-16.17,26.34-32.39,40.14-48.21c9.52-10.88,20.54-22.21,36.1-26.34
			c13.4-3.54,27.4-1.16,40.4,1.38c45.07,8.77,89.33,19.92,132.46,33.35c38.2,11.91,78.33,26.14,121.22,19.94
			c98.6-14.23,139.25-125.79,236.66-149.11"/>
		<path class="st1" d="M-18.21,1136.73c-18.65-50.41-10.64-126.25,20-191.03c30.66-64.42,85.7-111.97,140.99-130.18
			c53.59-17.65,107.77-30.98,166.73-43.08c5.13-1.06,10.31-2.13,15.52-3.24c10.11-2.13,20.5-4.32,31.46-6.27
			c36.36-6.48,77.38-9.3,115.62-17.53c73.73-15.83,135.29-51.18,181.73-93.13c47.08-42.29,80.5-92.06,106.34-147.28
			c4.12-8.8,8.09-17.8,11.97-26.91c12.31-29.18,24.93-59.89,45.92-85.69c21.28-26.29,49.56-46.38,84.32-62.13
			c54.81-24.77,122.93-7.93,172.97,15.23c50.04,23.15,95.73,53.52,155.22,59.37c70.11,6.94,142.68-24.53,193.99-66.65
			c34.81-28.56,62.36-61.7,89.57-95.03c12.95-15.86,25.8-31.78,39.33-47.28c9.32-10.67,20.09-21.79,35.27-25.93
			c13.05-3.56,26.7-1.39,39.37,0.94c43.89,8.03,87.03,18.35,129.13,30.9c37.25,11.12,76.38,24.48,118.17,18.08
			c96.07-14.7,136.14-123.59,231.12-147.05"/>
		<path class="st1" d="M5.96,1158.24C-13,1108.46-5.9,1031.37,23.36,964.97c29.33-66.03,82.91-115.4,136.3-134.58
			c53.06-19.1,106.42-34.68,165.16-48.52c5.12-1.2,10.27-2.44,15.49-3.68c10.08-2.41,20.46-4.86,31.48-7.03
			c36.52-7.18,78.11-10.15,116.71-18.68c74.43-16.49,135.79-53.34,181.41-96.54c46.25-43.53,78.33-94.43,103.59-150.56
			c4.03-8.94,7.91-18.08,11.75-27.33c12.16-29.6,24.88-60.72,46.51-86.68c21.82-26.42,50.95-46.31,86.11-62.25
			c53.73-24.29,120.3-8.42,169.28,13.49c48.98,21.91,93.83,50.8,151.91,55.94c68.45,6.12,139.25-24.94,189.4-66.34
			c34.01-28.07,61.04-60.55,87.69-93.25c12.68-15.56,25.29-31.17,38.53-46.38c9.12-10.48,19.65-21.37,34.42-25.54
			c12.72-3.59,26-1.62,38.35,0.5c42.71,7.28,84.75,16.79,125.81,28.45c36.29,10.33,74.41,22.84,115.1,16.21
			c93.56-15.17,132.97-121.4,225.59-144.99"/>
		<path class="st1" d="M30.12,1179.73c-19.28-49.14-13.05-127.45,14.84-195.52c27.97-67.67,80.12-118.87,131.63-139.04
			c52.55-20.59,105.09-38.4,163.62-53.96c5.1-1.36,10.23-2.75,15.44-4.14c10.06-2.68,20.44-5.4,31.55-7.77
			c36.68-7.89,78.84-10.94,117.81-19.84c75.05-17.13,136.2-55.46,181-99.94c45.4-44.83,76.26-96.8,100.83-153.77
			c3.93-9.08,7.73-18.36,11.52-27.74c12.03-30.07,24.89-61.56,47.09-87.66c22.38-26.55,52.33-46.26,87.89-62.38
			c52.66-23.81,117.68-8.89,165.64,11.79s91.92,48.09,148.59,52.48c66.8,5.28,135.77-25.38,184.82-66.04
			c33.25-27.57,59.73-59.41,85.83-91.46c12.42-15.23,24.77-30.56,37.72-45.47c8.92-10.28,19.2-20.97,33.58-25.15
			c12.38-3.59,25.3-1.83,37.33,0.07c41.52,6.54,82.45,15.23,122.49,26c35.35,9.53,72.45,21.15,112.05,14.38
			c91.02-15.67,129.82-119.2,220.05-142.95"/>
		<path class="st1" d="M54.29,1201.26c-19.58-48.5-14.31-128.05,12.27-197.76C93.22,934.26,143.89,881.09,193.45,860
			c52.04-22.12,103.74-42.11,162.1-59.4c5.09-1.51,10.19-3.04,15.39-4.58c10.04-2.97,20.42-5.92,31.55-8.53
			c36.86-8.61,79.58-11.76,118.92-20.99c75.83-17.81,136.77-57.64,180.74-103.4c44.6-46.05,74.09-99.15,98.07-157.01
			c3.83-9.23,7.56-18.61,11.3-28.16c11.88-30.53,24.89-62.39,47.67-88.65c22.93-26.68,53.72-46.2,89.69-62.51
			c51.6-23.33,115.03-9.37,162.01,10.1s90.01,45.38,145.28,49.06c65.13,4.44,132.3-25.81,180.22-65.73
			c32.48-27.07,58.43-58.27,83.97-89.66c12.16-14.95,24.25-29.95,36.91-44.58c8.7-10.07,18.77-20.55,32.75-24.74
			c12.04-3.61,24.61-2.06,36.3-0.37c40.34,5.79,80.15,13.66,119.16,23.55c34.4,8.74,70.48,19.45,108.97,12.47
			c88.5-16.14,126.67-117.01,214.52-140.88"/>
		<path class="st1" d="M78.47,1222.77c-19.9-47.87-15.54-128.66,9.69-200c25.28-70.85,74.51-126.03,122.18-147.91
			c51.53-23.68,102.39-45.83,160.5-64.84c5.06-1.65,10.16-3.34,15.34-5.02c10.02-3.25,20.4-6.48,31.55-9.3
			c36.99-9.3,80.31-12.57,120.01-22.16c76.59-18.42,137.29-59.76,180.45-106.79c43.71-47.31,71.93-101.5,95.31-160.25
			c3.73-9.36,7.39-18.92,11.07-28.56c11.75-30.99,24.9-63.22,48.26-89.66c23.5-26.8,55.11-46.14,91.47-62.63
			c50.53-22.84,112.41-9.85,158.38,8.41s88.12,42.66,141.96,45.68c63.48,3.6,128.85-26.22,175.64-65.43
			c31.71-26.57,57.11-57.13,82.11-87.88c11.9-14.65,23.73-29.34,36.11-43.68c8.53-9.88,18.31-20.13,31.91-24.35
			c11.69-3.63,23.93-2.28,35.27-0.85c39.16,5.06,77.86,12.1,115.84,21.1c33.44,7.94,68.54,17.83,105.91,10.6
			c85.94-16.61,123.52-114.81,208.98-138.81"/>
		<path class="st1" d="M102.63,1244.28c-20.2-47.23-16.75-129.26,7.13-202.24c23.93-72.45,71.69-129.65,117.49-152.35
			c51.03-25.31,101.07-49.53,158.94-70.27c5.05-1.81,10.13-3.65,15.3-5.46c10-3.53,20.38-7.02,31.55-10.04
			c37.18-10.02,81.04-13.38,121.1-23.31c77.24-19.13,137.76-61.94,180.09-110.24c42.87-48.57,69.8-103.87,92.56-163.49
			c3.63-9.5,7.21-19.2,10.88-28.98c11.64-31.45,24.91-64.05,48.85-90.63c24.05-26.92,56.51-46.08,93.26-62.75
			c49.46-22.37,109.77-10.34,154.73,6.71s86.19,39.95,138.65,42.24c61.81,2.77,125.39-26.67,171.05-65.13
			c30.95-26.07,55.8-55.99,80.25-86.1c11.64-14.38,23.19-28.76,35.29-42.78c8.33-9.67,17.87-19.72,31.07-23.95
			c11.36-3.65,23.2-2.54,34.25-1.24c37.98,4.31,75.56,10.55,112.51,18.65c32.5,7.15,66.56,16.16,102.85,8.72
			c83.45-17.09,120.35-112.62,203.44-136.75"/>
		<path class="st1" d="M126.8,1265.8c-20.52-46.61-17.98-129.87,4.55-204.49c22.58-74.06,68.84-133.34,112.77-156.79
			c50.52-26.97,99.72-53.29,157.39-75.72c5.03-1.95,10.08-3.94,15.23-5.92c10.29-4.03,20.84-7.63,31.62-10.79
			c37.36-10.73,81.78-14.2,122.21-24.47c77.94-19.79,138.25-64.09,179.76-113.66c42.03-49.83,67.65-106.24,89.79-166.73
			c3.54-9.64,7.03-19.45,10.63-29.39c11.47-31.91,24.91-64.88,49.43-91.62c24.6-27.07,57.89-46.02,95.04-62.88
			c48.4-21.89,107.15-10.82,151.11,5.02c43.96,15.83,84.28,37.22,135.33,38.82c60.14,1.94,121.93-27.07,166.45-64.82
			c30.18-25.57,54.48-54.84,78.33-84.31c11.38-14.03,22.68-28.12,34.49-41.88c8.14-9.47,17.41-19.3,30.23-23.55
			c11.02-3.66,22.51-2.73,33.21-1.69c36.8,3.58,73.28,8.99,109.19,16.2c31.55,6.35,64.59,14.5,99.79,6.85
			c80.98-17.54,117.27-110.39,197.97-134.66"/>
		<path class="st1" d="M150.97,1287.31c-20.83-45.97-19.21-130.47,1.97-206.73C174.19,1004.9,218.91,943.5,261,919.35
			c49.99-28.67,98.39-56.95,155.84-81.15c5-2.11,10.04-4.23,15.23-6.35c10.26-4.31,20.83-8.17,31.66-11.55
			c37.52-11.44,82.51-15.02,123.3-25.64c78.64-20.45,138.75-66.24,179.44-117.07c41.19-51.09,65.5-108.61,87.03-170.01
			c3.44-9.79,6.85-19.77,10.41-29.81c11.32-32.37,24.91-65.71,50.04-92.6c25.15-27.19,59.27-45.96,96.82-63.02
			c47.32-21.41,104.51-11.3,147.46,3.32c42.95,14.62,82.36,34.53,132.02,35.4c58.49,1.1,118.48-27.54,161.88-64.51
			c29.37-25.07,53.18-53.7,76.52-82.53c11.12-13.73,22.16-27.51,33.72-40.97c7.93-9.3,16.98-18.89,29.37-23.16
			c10.67-3.67,21.76-2.94,32.18-2.11c35.61,2.85,70.94,7.44,105.8,13.75c30.58,5.57,62.62,12.84,96.72,4.98
			c78.4-18.02,114-108.17,192.33-132.59"/>
		<path class="st1" d="M175.14,1308.82c-21.13-45.34-20.43-131.11-0.59-208.97c19.89-77.28,63.1-140.86,103.35-165.66
			c49.42-30.45,97.04-60.66,154.27-86.6c4.99-2.26,10.01-4.54,15.15-6.77c10.23-4.6,20.8-8.7,31.68-12.3
			c37.68-12.19,83.23-15.89,124.43-26.82c79.34-21.15,139.25-68.39,179.11-120.5c40.33-52.35,63.36-110.97,84.28-173.23
			c3.33-9.91,6.68-20.04,10.18-30.21c11.18-32.83,24.92-66.54,50.6-93.59c25.71-27.31,60.66-45.9,98.62-63.14
			c46.26-20.93,101.88-11.78,143.83,1.62c41.95,13.41,80.5,31.81,128.71,31.96c56.82,0.27,115.02-27.96,157.29-64.2
			c28.64-24.57,51.86-52.57,74.65-80.74c10.88-13.42,21.64-26.9,32.88-40.08c7.73-9.07,16.54-18.46,28.56-22.75
			c10.33-3.7,21.11-3.17,31.16-2.54c34.45,2.11,68.7,5.88,102.54,11.3c29.63,4.76,60.66,11.17,93.67,3.1
			c75.87-18.52,110.88-106.02,186.82-130.56"/>
		<path class="st1" d="M199.31,1330.33c-21.44-44.7-21.66-131.68-3.17-211.22c18.49-78.88,60.13-144.64,98.65-170.09
			c48.82-32.21,95.73-64.37,152.72-92.04c4.97-2.4,9.98-4.84,15.1-7.24c10.18-4.89,20.78-9.25,31.7-13.05
			c37.86-12.87,83.97-16.65,125.51-27.91c80.04-21.81,139.73-70.58,178.77-123.96c39.49-53.61,61.22-113.34,81.53-176.47
			c3.26-10.06,6.53-20.3,9.97-30.63c11.04-33.28,24.92-67.37,51.13-94.58c26.27-27.44,62.01-45.84,100.41-63.26
			c45.19-20.45,99.25-12.26,140.2-0.08s78.55,29.1,125.38,28.54c55.17-0.57,111.57-28.39,152.71-63.9
			c27.88-24.07,50.54-51.43,72.79-78.96c10.6-13.12,21.12-26.29,32.06-39.17c7.55-8.87,16.1-18.06,27.72-22.36
			c10.01-3.7,20.41-3.38,30.13-2.99c33.28,1.38,66.42,4.33,99.23,8.85c28.68,3.97,58.68,9.51,90.59,1.24
			c73.36-19.01,107.7-103.84,181.3-128.51"/>
		<path class="st1" d="M223.47,1351.84c-21.76-44.07-22.85-132.28-5.73-213.47c17.2-80.49,57.16-148.52,93.94-174.52
			c48.18-34.05,94.36-68.08,151.22-97.47c4.95-2.54,9.94-5.14,15.06-7.69c10.15-5.18,20.75-9.79,31.73-13.8
			c38.08-13.53,84.71-17.47,126.6-29.11c80.74-22.44,140.23-72.69,178.41-127.35c38.64-54.87,59.06-115.69,78.75-179.71
			c3.14-10.2,6.34-20.6,9.79-31.04c10.88-33.74,24.93-68.21,51.76-95.58c26.83-27.57,63.45-45.79,102.2-63.39
			c44.12-19.97,96.62-12.75,136.56-1.77c39.95,10.98,76.63,26.38,122.07,25.11c53.5-1.4,108.1-28.83,148.12-63.59
			c27.11-23.57,49.23-50.29,70.93-77.17c10.33-12.81,20.58-25.67,31.26-38.27c7.34-8.67,15.64-17.64,26.87-21.99
			c9.67-3.72,19.71-3.62,29.11-3.38c32.1,0.64,64.12,2.77,95.9,6.39c27.73,3.18,56.72,7.85,87.53-0.63
			c70.83-19.45,104.58-101.64,175.76-126.45"/>
		<path class="st1" d="M247.7,1373.35c-22.06-43.43-24.11-132.88-8.31-215.69c15.85-82.1,54.14-152.4,89.21-178.96
			c47.49-35.94,93.01-71.8,149.61-102.92c4.93-2.71,9.9-5.44,15-8.13c10.11-5.46,20.72-10.34,31.77-14.57
			c38.18-14.28,85.44-18.28,127.7-30.26c81.45-23.09,140.72-74.84,178.12-130.77c37.8-56.13,56.93-118.05,76-182.95
			c3.05-10.34,6.16-20.88,9.53-31.46c10.76-34.21,24.93-69.04,52.35-96.56c27.37-27.69,64.82-45.73,103.98-63.51
			c43.05-19.45,93.98-13.23,132.92-3.46s74.73,23.68,118.77,21.69c51.84-2.24,104.64-29.26,143.53-63.29
			c26.35-23.07,47.87-49.14,69.06-75.39c10.07-12.51,20.07-25.06,30.46-37.37c7.15-8.46,15.23-17.22,26.04-21.57
			c9.32-3.74,19.01-3.84,28.08-3.85c30.93-0.08,61.84,1.23,92.57,3.93c26.78,2.39,54.76,6.18,84.47-2.5
			c68.31-19.96,101.42-99.44,170.22-124.34"/>
		<path class="st1" d="M271.82,1394.86c-22.38-42.79-25.34-133.48-10.88-217.95c14.5-83.74,51.13-156.32,84.53-183.4
			c46.78-37.85,91.69-75.51,148.06-108.36c4.91-2.86,9.86-5.74,14.95-8.57c10.06-5.75,20.69-10.87,31.79-15.32
			c38.36-14.99,86.18-19.09,128.81-31.42c82.15-23.75,141.21-76.97,177.78-134.18c36.99-57.4,54.79-120.41,73.25-186.2
			c2.95-10.48,5.98-21.15,9.3-31.86c10.63-34.68,24.95-69.87,52.94-97.55c27.99-27.68,66.21-45.68,105.76-63.63
			c41.99-19.01,91.38-13.72,129.3-5.17c37.91,8.55,72.81,20.96,115.44,18.27c50.18-3.08,101.17-29.7,138.93-62.99
			c25.59-22.57,46.62-47.99,67.21-73.59c9.79-12.21,19.58-24.45,29.63-36.46c6.95-8.27,14.76-16.81,25.21-21.15
			c8.99-3.76,18.31-4.06,27.06-4.29c29.74-0.8,59.53-0.3,89.21,1.49c25.83,1.59,52.8,4.52,81.41-4.37
			c65.77-20.44,98.26-97.27,164.69-122.32"/>
		<path class="st1" d="M295.98,1416.37c-22.68-42.16-26.52-134.08-13.47-220.19c13.16-85.32,48.01-160.24,79.83-187.83
			c45.92-39.81,90.29-79.22,146.5-113.8c4.9-3.01,9.79-6.05,14.9-9.02c10.02-6.03,20.66-11.4,31.82-16.07
			c38.52-15.7,86.91-19.91,129.89-32.58c82.86-24.41,141.72-79.15,177.48-137.59c36.12-58.65,52.63-122.77,70.48-189.47
			c2.85-10.62,5.81-21.43,9.08-32.28c10.48-35.12,24.95-70.7,53.51-98.53c28.57-27.84,67.6-45.6,107.56-63.73
			c40.92-18.53,88.72-14.19,125.65-6.86c36.93,7.33,70.9,18.24,112.13,14.84c48.52-3.92,97.74-30.13,134.34-62.69
			c24.83-22.07,45.3-46.85,65.35-71.81c9.55-11.89,19.02-23.84,28.83-35.53c6.74-8.07,14.32-16.4,24.36-20.77
			c8.7-3.77,17.61-4.29,26.03-4.73c28.6-1.53,57.3-1.85,85.94-0.96c24.88,0.8,50.83,2.86,78.33-6.24
			c63.25-20.94,95.1-95.1,159.18-120.32"/>
		<path class="st1" d="M320.15,1437.88c-23-41.52-27.78-134.69-16.04-222.46c11.81-86.93,44.88-164.2,75.13-192.27
			c45.02-41.78,88.99-82.89,144.94-119.26c4.87-3.15,9.79-6.34,14.86-9.46c9.97-6.31,20.63-11.93,31.84-16.82
			c38.69-16.42,87.64-20.73,130.99-33.74c83.55-25.08,142.2-81.29,177.13-141.04c35.28-59.91,50.5-125.13,67.73-192.68
			c2.75-10.76,5.64-21.72,8.86-32.69c10.35-35.58,24.96-71.53,54.1-99.52s68.99-45.55,109.35-63.9
			c39.84-18.05,86.08-14.68,122.01-8.55c35.92,6.12,68.99,15.53,108.79,11.42c46.87-4.75,94.29-30.56,129.76-62.38
			c24.05-21.57,43.98-45.68,63.48-70.03c9.29-11.59,18.49-23.23,28.02-34.68c6.53-7.87,13.87-15.98,23.52-20.38
			c8.31-3.78,16.92-4.51,25.02-5.16c27.44-2.23,55-3.36,82.59-3.38c23.93,0,48.87,1.2,75.28-8.11
			c60.74-21.39,91.96-92.84,153.61-118.2"/>
		<path class="st1" d="M344.31,1459.39c-23.3-40.89-29-135.33-18.6-224.67c10.47-88.53,41.7-168.15,70.42-196.7
			c44.06-43.81,87.66-86.64,143.38-124.68c4.86-3.32,9.79-6.65,14.82-9.91c9.92-6.59,20.58-12.48,31.86-17.58
			c38.86-17.12,88.38-21.54,132.1-34.9c84.22-25.73,142.69-83.44,176.8-144.45c34.43-61.17,48.35-127.49,64.97-195.92
			c2.65-10.9,5.44-21.99,8.64-33.11c10.19-36.04,24.96-72.36,54.68-100.51s70.39-45.49,111.14-64.02
			c38.78-17.57,83.45-15.16,118.37-10.24c34.92,4.91,67.09,12.81,105.53,7.99c45.2-5.59,90.83-30.99,125.17-62.08
			c23.28-21.07,42.67-44.57,61.62-68.24c9.03-11.28,17.97-22.62,27.2-33.76c6.36-7.67,13.44-15.56,22.69-19.98
			c7.96-3.81,16.22-4.74,23.93-5.6c27.1-3.02,53.52-4.97,79.27-5.86c22.98-0.8,46.9-0.47,72.21-9.99
			c58.21-21.87,88.8-90.65,148.07-116.13"/>
		<path class="st1" d="M368.45,1480.91c-23.62-40.26-30.23-135.9-21.18-226.93c9.21-90.14,38.52-172.1,65.78-201.12
			c43-45.84,86.31-90.34,141.83-130.12c4.83-3.46,9.71-6.94,14.76-10.35c9.88-6.87,20.55-13.01,31.9-18.33
			c39.02-17.83,89.11-22.36,133.19-36.06c84.95-26.39,143.2-85.59,176.48-147.88c33.59-62.43,46.2-129.85,62.22-199.17
			c2.56-11.04,5.28-22.27,8.41-33.51c10.06-36.5,25.02-73.19,55.28-101.5c30.25-28.31,71.8-45.43,112.92-64.14
			c37.71-17.09,80.82-15.65,114.74-11.94c33.92,3.7,65.16,10.1,102.19,4.56c43.52-6.41,87.37-31.42,120.58-61.75
			c22.52-20.57,41.34-43.43,59.75-66.46c8.78-11,17.41-21.99,26.41-32.86c6.16-7.46,12.98-15.15,21.84-19.58
			c7.62-3.81,15.52-4.96,22.95-6.03c25.95-3.76,51.26-6.53,75.95-8.31c22.03-1.59,44.93-2.13,69.16-11.84
			c55.69-22.34,85.64-88.45,142.51-114.07"/>
		<path class="st1" d="M392.66,1502.42c-23.93-39.63-31.46-136.5-23.76-229.17c7.78-91.75,35.23-176.07,61.01-205.54
			c41.87-47.9,84.99-94.06,140.27-135.56c4.82-3.61,9.69-7.24,14.72-10.79c9.82-7.15,20.52-13.54,31.93-19.08
			c39.16-18.54,89.84-23.18,134.29-37.22c85.66-27.07,143.69-87.75,176.15-151.3c32.75-63.7,44.06-132.22,59.45-202.42
			c2.46-11.17,5.1-22.55,8.19-33.93c9.91-36.95,25.02-74.03,55.85-102.49c30.7-28.45,73.15-45.36,114.71-64.28
			c36.64-16.61,78.2-16.12,111.11-13.64c32.91,2.48,63.26,7.39,98.87,1.14c41.88-7.25,83.91-31.85,116-61.46
			c21.76-20.07,40.05-42.29,57.89-64.67c8.51-10.67,16.88-21.4,25.59-31.96c5.96-7.27,12.54-14.73,21.01-19.18
			c7.29-3.83,14.83-5.19,21.92-6.47c24.81-4.51,49.02-8.1,72.64-10.77c21.07-2.38,42.96-3.79,66.09-13.72
			c53.15-22.84,82.48-86.28,137-112.02"/>
		<path class="st1" d="M416.82,1523.93c-24.24-38.99-32.64-137.1-26.33-231.41c6.43-93.33,31.93-180.03,56.29-210.01
			c40.64-49.96,83.64-97.76,138.72-140.99c4.8-3.76,9.65-7.54,14.66-11.24c9.71-7.17,20.08-14.04,31.95-19.84
			c39.37-19.24,90.58-23.99,135.4-38.38c86.36-27.71,144.18-89.89,175.81-154.71c31.9-64.96,41.92-134.58,56.7-205.66
			c2.35-11.32,4.93-22.84,7.96-34.34c9.79-37.42,25.02-74.86,56.44-103.48c31.27-28.58,74.54-45.3,116.5-64.39
			c35.57-16.13,75.55-16.6,107.46-15.34c31.91,1.27,61.36,4.68,95.56-2.28c40.25-8.09,80.5-32.29,111.41-61.15
			c20.99-19.57,38.73-41.15,56.03-62.89c8.25-10.37,16.41-20.78,24.78-31.05c5.78-7.07,12.1-14.32,20.18-18.79
			c6.94-3.84,14.14-5.4,20.89-6.9c23.67-5.24,46.78-9.65,69.31-13.21c20.12-3.18,41-5.46,63.03-15.6
			c50.63-23.3,79.33-84.06,131.46-109.96"/>
		<path class="st1" d="M440.99,1545.43c-24.55-38.36-33.9-137.71-28.91-233.66c5.09-94.96,28.59-183.99,51.61-214.44
			c39.33-52.05,82.29-101.5,137.16-146.44c4.78-3.91,9.61-7.84,14.61-11.68c9.7-7.45,20.06-14.58,31.98-20.6
			c39.53-19.95,91.31-24.81,136.49-39.53c87.03-28.37,144.69-92.04,175.5-158.17c31.05-66.22,39.76-136.94,53.94-208.92
			c2.25-11.46,4.75-23.12,7.73-34.76c9.64-37.88,25.02-75.69,57.03-104.46c31.82-28.71,75.93-45.25,118.29-64.53
			c34.51-15.65,72.89-17.09,103.84-17.03c30.95,0.06,59.43,1.96,92.23-5.71c38.57-8.92,77-32.72,106.83-60.85
			c20.21-19.07,37.41-40.01,54.16-61.1c7.98-10.07,15.89-20.18,23.93-30.16c5.57-6.86,11.65-13.9,19.33-18.39
			c6.6-3.87,13.42-5.62,19.86-7.34c22.55-5.95,44.56-11.16,66.01-15.61c19.17-3.98,39.03-7.12,59.96-17.47
			c48.12-23.78,76.15-81.86,125.93-107.9"/>
		<path class="st1" d="M465.16,1566.94c-24.9-37.72-35.12-138.31-31.43-235.9c3.74-96.57,25.22-187.93,46.9-218.88
			c37.95-54.13,80.96-105.19,135.61-151.87c4.76-4.07,9.57-8.15,14.58-12.14c9.67-7.72,20.03-15.12,32.01-21.34
			c39.7-20.67,92.04-25.63,137.59-40.69c87.76-29.03,145.17-94.19,175.15-161.56c30.21-67.47,37.63-139.3,51.13-212.15
			c2.18-11.6,4.58-23.39,7.52-35.16c9.5-38.33,25.02-76.52,57.66-105.45c32.36-28.83,77.32-45.19,120.07-64.65
			c33.44-15.17,70.29-17.57,100.19-18.73c29.91-1.16,57.53-0.75,88.92-9.14c36.9-9.76,73.54-33.15,102.26-60.55
			c19.45-18.61,36.11-38.87,52.29-59.31c7.72-9.76,15.36-19.57,23.17-29.26c5.37-6.67,11.22-13.49,18.49-17.99
			c6.28-3.88,12.73-5.85,18.84-7.78c21.38-6.73,42.26-12.77,62.66-18.12c18.21-4.76,37.06-8.78,56.9-19.34
			c45.59-24.26,73.02-79.66,120.39-105.83"/>
		<path class="st1" d="M489.33,1588.45c-25.14-37.08-36.35-138.9-34.05-238.14c2.39-98.19,21.76-191.86,42.2-223.3
			c36.46-56.22,79.61-108.9,134.05-157.33c4.73-4.23,9.53-8.46,14.52-12.58c9.65-8.01,20.02-15.66,32.03-22.1
			c39.87-21.37,92.78-26.43,138.7-41.84c88.46-29.7,145.66-96.35,174.84-164.99c29.37-68.73,35.48-141.66,48.42-215.39
			c2.06-11.73,4.35-23.68,7.29-35.58c9.37-38.79,25.02-77.35,58.2-106.44c32.92-28.96,78.7-45.13,121.84-64.77
			c32.38-14.69,67.67-18.05,96.56-20.42c28.89-2.37,55.62-3.47,85.62-12.56c35.23-10.6,70.08-33.59,97.65-60.24
			c18.68-18.07,34.81-37.72,50.42-57.52c7.47-9.46,14.85-18.96,22.37-28.35c5.18-6.47,10.77-13.08,17.66-17.6
			c5.94-3.89,12.03-6.07,17.82-8.21c20.23-7.47,40.01-14.33,59.33-20.56c17.26-5.57,35.11-10.45,53.84-21.21
			c43.07-24.73,69.86-77.47,114.85-103.77"/>
		<path class="st1" d="M513.5,1609.96c-25.48-36.45-37.58-139.51-36.63-240.38c1.09-99.81,18.36-195.78,37.5-227.75
			c34.89-58.3,78.33-112.61,132.48-162.76c4.72-4.36,9.51-8.74,14.48-13.02c9.63-8.29,20-16.2,32.06-22.84
			c40.03-22.08,93.5-27.25,139.78-43.01c89.21-30.35,146.16-98.49,174.51-168.4c28.52-70,33.33-144.03,45.69-218.63
			c1.96-11.84,4.22-23.95,7.07-35.99c9.21-39.26,25.02-78.18,58.75-107.42c33.49-29.09,80.09-45.08,123.65-64.9
			c31.3-14.21,65.03-18.53,92.93-22.11c27.89-3.58,53.7-6.18,82.29-15.99c33.57-11.44,66.63-34.02,93.06-59.94
			c17.93-17.57,33.49-36.58,48.57-55.74c7.2-9.15,14.32-18.35,21.56-27.46c4.97-6.26,10.32-12.69,16.82-17.2
			c5.59-3.92,11.32-6.3,16.79-8.65c19.08-8.21,37.75-15.88,56-23.02c16.32-6.35,33.15-12.11,50.78-23.08
			c40.53-25.21,66.71-75.28,109.31-101.71"/>
		<path class="st1" d="M537.66,1631.47c-25.78-35.81-38.79-140.11-39.16-242.63c-0.29-101.39,14.88-199.67,32.79-232.18
			c33.41-60.5,77.47-117.11,130.9-168.2c4.7-4.52,9.46-9.05,14.43-13.47c9.61-8.57,19.97-16.74,32.09-23.61
			c40.25-22.84,94.23-28.07,140.88-44.17c89.86-31.01,146.65-100.66,174.17-171.82c27.69-71.26,31.2-146.4,42.91-221.87
			c1.87-12.02,4.06-24.23,6.85-36.37c9.08-39.75,25.02-79.01,59.37-108.42c34.04-29.22,81.48-45.01,125.43-65.03
			c30.24-13.73,62.4-19.01,89.29-23.81c26.89-4.8,51.79-8.89,78.98-19.41c31.91-12.26,63.17-34.44,88.47-59.62
			c17.16-17.07,32.17-35.45,46.71-53.96c6.94-8.85,13.79-17.76,20.75-26.55c4.79-6.06,9.88-12.25,15.98-16.81
			c5.25-3.92,10.63-6.51,15.76-9.08c17.94-8.97,35.51-17.46,52.69-25.48c15.36-7.15,31.17-13.77,47.71-24.95
			c38.01-25.69,63.54-73.07,103.77-99.65"/>
		<path class="st1" d="M561.84,1652.98c-26.11-35.18-40.02-140.72-41.78-244.87c-1.64-103,11.38-203.54,28.09-236.62
			c31.55-62.41,75.59-120.03,129.37-173.63c4.69-4.67,9.43-9.3,14.38-13.91c9.58-8.85,19.95-17.28,32.11-24.36
			C764.39,936.09,819,930.7,866,914.27c90.58-31.68,147.15-102.8,173.86-175.25c26.71-72.45,29.05-148.76,40.14-225.12
			c1.77-12.15,3.88-24.53,6.64-36.81c8.93-40.17,25.02-79.84,59.94-109.41c34.59-29.34,82.88-44.95,127.28-65.13
			c29.17-13.25,59.77-19.5,85.65-25.51c25.88-6.01,49.89-11.6,75.66-22.84c30.25-13.1,59.71-34.87,83.89-59.32
			c16.39-16.57,30.86-34.31,44.84-52.17c6.69-8.54,13.28-17.12,19.94-25.65c4.59-5.87,9.44-11.84,15.14-16.41
			c4.54-3.49,9.45-6.68,14.69-9.52c16.8-9.7,33.25-19.01,49.36-27.91c14.41-7.94,29.21-15.43,44.6-26.82
			c35.5-26.16,60.4-70.87,98.25-97.58"/>
		<path class="st1" d="M586.03,1674.49c-26.4-34.54-41.24-141.32-44.34-247.11c-2.99-104.61,7.85-207.4,23.38-241.07
			c29.75-64.46,74.26-123.74,127.83-179.07c4.67-4.82,9.39-9.65,14.33-14.38c9.57-9.13,19.93-17.81,32.15-25.11
			c40.53-24.22,95.73-29.7,143.08-46.52c91.27-32.33,147.64-104.94,173.52-178.67s26.9-151.12,37.39-228.38
			c1.68-12.29,3.71-24.79,6.41-37.22c8.8-40.6,25.02-80.68,60.54-110.39c35.14-29.48,84.25-44.9,129-65.28
			c28.1-12.77,57.14-19.98,82.03-27.2s47.97-14.32,72.34-26.22c28.59-13.93,56.25-35.31,79.3-59.01
			c15.62-16.07,29.55-33.17,42.98-50.39c6.42-8.24,12.75-16.51,19.14-24.75c4.35-5.66,8.99-11.41,14.31-16.01
			c4.28-3.55,8.86-6.88,13.71-9.95c15.64-10.45,30.98-20.57,46.03-30.37c13.47-8.74,27.2-17.1,41.59-28.69
			c32.97-26.64,57.24-68.68,92.71-95.53"/>
		<path class="st1" d="M610.17,1696c-26.72-33.91-42.43-141.92-46.91-249.35c-4.35-106.22,4.29-211.23,18.67-245.49
			c27.9-66.47,72.89-127.44,126.27-184.51c4.65-4.97,9.36-9.95,14.27-14.8c9.55-9.41,19.91-18.35,32.18-25.87
			c40.7-24.93,96.44-30.52,144.18-47.65c91.97-32.99,148.13-107.09,173.19-182.09s24.76-153.48,34.63-231.6
			c1.58-12.43,3.52-25.07,6.19-37.64c8.7-41.09,25.02-81.51,61.12-111.38c35.69-29.6,85.64-44.83,130.8-65.41
			c27.03-12.29,54.5-20.46,78.33-28.89c23.82-8.43,46.06-17.04,69.04-29.69c26.93-14.77,52.8-35.75,74.71-58.71
			c14.85-15.57,28.29-32.02,41.11-48.6c6.17-7.93,12.24-15.9,18.33-23.84c4.19-5.46,8.55-11,13.47-15.61
			c3.99-3.63,8.22-7.1,12.68-10.39c14.5-11.19,28.74-22.13,42.71-32.83c12.51-9.53,25.27-18.76,38.52-30.56
			c30.46-27.13,54.09-66.49,87.17-93.47"/>
		<path class="st1" d="M634.35,1717.52c-27.03-33.28-43.7-142.53-49.49-251.6c-5.69-107.83,0.72-215.04,13.97-249.92
			c26-68.46,71.57-131.16,124.71-189.96c4.62-5.08,9.32-10.24,14.24-15.23c9.52-9.68,19.88-18.9,32.19-26.62
			c40.87-25.64,97.18-31.3,145.28-48.81c92.68-33.66,148.63-109.25,172.87-185.51c24.24-76.26,22.62-155.85,31.88-234.85
			c1.48-12.58,3.35-25.38,5.96-38.06c8.52-41.55,25.02-82.33,61.71-112.37c36.26-29.72,87.03-44.78,132.58-65.54
			c25.97-11.84,51.88-20.94,74.75-30.59c22.87-9.64,44.15-19.75,65.72-33.11c25.27-15.61,49.35-36.18,70.13-58.36
			c14.14-15.07,26.91-30.88,39.25-46.82c5.91-7.61,11.71-15.29,17.52-22.95c3.83-5.26,8.05-10.34,12.63-15.23
			c3.89-3.99,7.83-7.42,11.65-10.83c13.37-11.93,26.45-23.68,39.39-35.28c11.56-10.32,23.31-20.42,35.47-32.43
			c27.92-27.6,50.92-64.28,81.59-91.41"/>
		<path class="st1" d="M658.51,1739.03c-27.34-32.65-44.92-143.13-52.06-253.85c-7.04-109.44-2.87-218.82,9.26-254.35
			c24.05-70.43,70.23-134.88,123.16-195.39c4.6-5.27,9.28-10.55,14.14-15.69c9.5-9.97,19.85-19.45,32.22-27.38
			c41.04-26.34,97.91-32.14,146.38-49.96c93.37-34.32,149.12-111.4,172.54-188.94s20.46-158.17,29.11-238.1
			c1.38-12.69,3.18-25.63,5.74-38.46c8.37-42,25.02-83.16,62.28-113.34c36.81-29.85,88.42-44.71,134.38-65.65
			c24.89-11.33,49.24-21.43,71.12-32.29c22.06-10.82,42.94-23.03,62.4-36.53c23.61-16.44,45.89-36.61,65.53-58.1
			c13.32-14.57,25.6-29.74,37.39-45.03c5.64-7.33,11.21-14.68,16.71-22.04c3.8-5.08,7.62-10.15,11.78-14.82
			c3.56-4,7.14-7.61,10.63-11.26c12.22-12.69,24.19-25.27,36.07-37.72c10.61-11.12,21.34-22.08,32.4-34.31
			c25.39-28.07,47.77-62.09,76.09-89.35"/>
		<path class="st1" d="M682.68,1760.54c-27.65-32.02-46.15-143.73-54.63-256.09c-8.38-111.04-6.53-222.58,4.56-258.83
			c22.05-72.37,68.89-138.58,121.59-200.84c4.59-5.42,9.25-10.84,14.14-16.13c9.48-10.25,19.83-19.98,32.26-28.13
			c41.2-27.07,98.64-32.99,147.47-51.12c94.07-34.97,149.61-113.55,172.2-192.35c22.6-78.81,18.33-160.53,26.36-241.31
			c1.27-12.86,3-25.91,5.52-38.91c8.24-42.47,25.02-84,62.87-114.35c37.37-29.98,89.82-44.65,136.17-65.78
			c23.82-10.85,46.61-21.91,67.45-33.99c20.99-12.12,40.74-25.48,59.08-39.96c21.95-17.28,42.43-37.04,60.92-57.8
			c12.55-14.07,24.29-28.6,35.52-43.25c5.39-7.01,10.69-14.07,15.91-21.15c3.6-4.86,7.21-9.75,10.95-14.38
			c3.26-4.03,6.43-7.86,9.6-11.7c11.09-13.41,21.96-26.82,32.84-40.17c9.66-11.92,19.39-23.75,29.37-36.18
			c22.85-28.56,44.6-59.89,70.56-87.28"/>
		<path class="st1" d="M706.84,1782.05c-55.59-62.38-77.37-447.28-57.35-521.56s67.56-142.3,120.05-206.28
			c13.42-16.37,27.47-32.78,46.37-45.46c41.34-27.76,99.38-33.78,148.57-52.28c94.79-35.63,150.13-115.69,171.89-195.78
			s16.18-162.93,23.6-244.58c5.05-55.58,18.6-114.81,68.75-154.62c37.91-30.11,91.19-44.6,137.94-65.92
			c90.29-41.13,156.26-108.06,209.64-178.02s96.54-144.58,154.48-212.31"/>
	</g>
</g>
</svg>
