<?xml version="1.0" encoding="utf-8"?>
<!-- Generator: Adobe Illustrator 21.0.0, SVG Export Plug-In . SVG Version: 6.00 Build 0)  -->
<svg version="1.1" id="Capa_1" xmlns="http://www.w3.org/2000/svg" xmlns:xlink="http://www.w3.org/1999/xlink" x="0px" y="0px"
	 viewBox="0 0 512 535" style="enable-background:new 0 0 512 535;" xml:space="preserve">
<style type="text/css">
	.st0{fill:#91DC5A;}
</style>
<g>
	<g>
		<g>
			<path class="st0" d="M512,219.2c0-0.2-0.1-0.3-0.1-0.5c-0.1-0.6-0.2-1.2-0.4-1.7c-0.1-0.5-0.3-1-0.5-1.5s-0.5-0.9-0.9-1.3
				c-0.3-0.5-0.7-0.9-1.2-1.3c-0.1-0.1-0.2-0.3-0.3-0.4l-82-63.7V82.7c0-14.1-11.5-25.6-25.6-25.6h-92.5l-37-28.7
				c-9.1-7.1-22-7.1-31.1,0l-37,28.7h-92.5c-14.1,0-25.6,11.5-25.6,25.6v66.1l-82,63.7c-0.1,0.1-0.2,0.3-0.3,0.4
				c-0.4,0.4-0.8,0.9-1.2,1.3c-0.3,0.4-0.6,0.8-0.9,1.3c-0.2,0.5-0.4,1-0.5,1.5c-0.2,0.6-0.3,1.1-0.4,1.7c0,0.2-0.1,0.3-0.1,0.5
				v290.2c0,2.7,0.5,5.5,1.4,8.1c-2,3-1.9,6.8,0.2,9.7s5.8,4.1,9.2,3.1c4.3,3.1,9.5,4.7,14.8,4.7h460.8c5.3,0,10.5-1.7,14.8-4.8
				c0.7,0.2,1.5,0.3,2.2,0.4c3.1,0,6-1.7,7.5-4.4s1.3-6.1-0.4-8.7c0.9-2.6,1.4-5.3,1.4-8.1L512,219.2L512,219.2z M250.9,41.8
				c3-2.4,7.2-2.4,10.2,0l19.7,15.3h-49.5L250.9,41.8z M27.7,517.9l223.2-173.3c3-2.4,7.2-2.4,10.2,0l223.2,173.3H27.7z
				 M494.9,504.6L271.5,331.1c-9.1-7.1-22-7.1-31.1,0L17.1,504.6V232.2l139.8,108.6c3.7,2.9,9.1,2.2,12-1.5s2.2-9.1-1.5-12L25.3,217
				l60-46.6v65.9c0,4.7,3.8,8.5,8.5,8.5s8.5-3.8,8.5-8.5V82.7c0-4.7,3.8-8.5,8.5-8.5h290.1c4.7,0,8.5,3.8,8.5,8.5v153.6
				c0,4.7,3.8,8.5,8.5,8.5s8.5-3.8,8.5-8.5v-65.9l60,46.6l-142,110.5c-3.7,2.9-4.4,8.3-1.5,12s8.3,4.4,12,1.5L495,232.2v272.4H494.9
				z"/>
			<path class="st0" d="M170.7,133.9h170.7c4.7,0,8.5-3.8,8.5-8.5s-3.8-8.5-8.5-8.5H170.7c-4.7,0-8.5,3.8-8.5,8.5
				C162.1,130.1,165.9,133.9,170.7,133.9z"/>
			<path class="st0" d="M349.9,176.6c0-4.7-3.8-8.5-8.5-8.5H170.7c-4.7,0-8.5,3.8-8.5,8.5s3.8,8.5,8.5,8.5h170.7
				C346,185.1,349.9,181.3,349.9,176.6z"/>
			<path class="st0" d="M349.9,227.8c0-4.7-3.8-8.5-8.5-8.5h-76.8c-4.7,0-8.5,3.8-8.5,8.5s3.8,8.5,8.5,8.5h76.8
				C346,236.3,349.9,232.5,349.9,227.8z"/>
		</g>
	</g>
</g>
</svg>
