<?xml version="1.0" encoding="utf-8"?>
<!-- Generator: Adobe Illustrator 24.0.1, SVG Export Plug-In . SVG Version: 6.00 Build 0)  -->
<svg version="1.1" id="Layer_1" xmlns="http://www.w3.org/2000/svg" xmlns:xlink="http://www.w3.org/1999/xlink" x="0px" y="0px"
	 viewBox="0 0 1060 145.8" style="enable-background:new 0 0 1060 145.8;" xml:space="preserve">
<style type="text/css">
	.st0{opacity:0.1;clip-path:url(#XMLID_2_);}
	.st1{fill:none;stroke:#FFFFFF;stroke-width:4.1415;stroke-miterlimit:10;}
</style>
<g>
	<defs>
		<rect id="XMLID_177_" width="1060" height="145.8"/>
	</defs>
	<clipPath id="XMLID_2_">
		<use xlink:href="#XMLID_177_"  style="overflow:visible;"/>
	</clipPath>
	<g class="st0">
		<path class="st1" d="M126.9-73.5c-35.8,57.4-45.7,129-46.7,198c-0.5,34,1.7,70.6,21.3,97.3c22.6,30.7,62.5,40.2,99,38.8
			c9.4-0.4,19.1-1.4,27.2-6.5c8.6-5.4,14.4-14.7,19.7-23.8c52.8-91.8,81-198.2,135.2-289c13.6-22.8,30.3-45.7,54.1-55
			c37.2-14.5,77.3,9,109.9,33c33.1,24.3,65.9,50.9,87.7,86.9c39.7,65.4,36.8,149.3,32.4,227.2c24.9,7.3,49.7-9.7,70.6-26
			C814.2,147.9,891.8,87.4,952.1,8.9c24.9-32.4,51.6-70.8,90.6-74.4c26.9-2.5,52.4,13,73.1,31.6c30,27,53.7,61.2,74.5,96.7
			c12.1,20.6,23.5,42.7,25.4,67c1.9,24.3-8.4,51.2-29.3,60.6"/>
		<path class="st1" d="M922.2,277.3C945.5,191,887.9,95.2,809.1,64.7s-169.5-5.3-237.8,46.8c-45.3,34.5-86.5,81.7-141.5,90.3
			c-37.9,5.9-75.9-8-110.9-24.6c-72.2-34.4-139.2-81.5-197.3-138.9c-8.8-8.7-17.8-17.9-29-22.6c-13.5-5.7-28.7-4-43-1.2
			C-28.3,30-97.6,79.1-153.2,139.7c-17.8,19.4-34.9,40.5-57.4,52.9c-18.3,10.1-39.1,13.9-59.7,14.8c-40.3,1.7-80.9-7.4-117.2-26.2"
			/>
		<path class="st1" d="M62.9,300.8C76,231.1,102.5,156.6,161.4,124c39.1-21.7,85.3-20.8,129.3-19.7c59.8,1.4,120.1,1.9,178.9-10.2
			s116.4-38,159-83c19.2-20.3,35.7-44.8,59.7-58.2c20.3-11.4,43.9-13.6,66.8-14.1c83-1.6,166.3,18.1,240.9,56.9"/>
	</g>
</g>
</svg>
