<?xml version="1.0" encoding="utf-8"?>
<!-- Generator: Adobe Illustrator 21.0.0, SVG Export Plug-In . SVG Version: 6.00 Build 0)  -->
<svg version="1.1" id="Capa_1" xmlns="http://www.w3.org/2000/svg" xmlns:xlink="http://www.w3.org/1999/xlink" x="0px" y="0px"
	 viewBox="0 0 512 531" style="enable-background:new 0 0 512 531;" xml:space="preserve">
<style type="text/css">
	.st0{fill:#91DC5A;}
</style>
<g>
	<g>
		<path class="st0" d="M256,19C156.7,19,76,99.7,76,199c0,33.5,9.3,66.3,26.9,94.7l142.9,230.3c2.7,4.4,7.6,7.1,12.7,7.1
			c0,0,0.1,0,0.1,0c5.2,0,10.1-2.8,12.8-7.3l139.2-232.5c16.6-27.8,25.4-59.7,25.4-92.2C436,99.7,355.3,19,256,19z M384.9,275.8
			L258.3,487.2L128.4,277.8c-14.6-23.6-22.6-50.9-22.6-78.8c0-82.7,67.5-150.2,150.2-150.2S406.1,116.3,406.1,199
			C406.1,226.1,398.7,252.7,384.9,275.8z"/>
	</g>
</g>
<g>
	<g>
		<path class="st0" d="M256,109c-49.6,0-90,40.4-90,90c0,49.3,39.7,90,90,90c50.9,0,90-41.2,90-90C346,149.4,305.6,109,256,109z
			 M256,259.2c-33.3,0-60.2-27-60.2-60.2c0-33.1,27.1-60.2,60.2-60.2s60.1,27.1,60.1,60.2C316.1,231.7,289.8,259.2,256,259.2z"/>
	</g>
</g>
</svg>
