<?xml version="1.0" encoding="utf-8"?>
<!-- Generator: Adobe Illustrator 24.0.1, SVG Export Plug-In . SVG Version: 6.00 Build 0)  -->
<svg version="1.1" id="Layer_1" xmlns="http://www.w3.org/2000/svg" xmlns:xlink="http://www.w3.org/1999/xlink" x="0px" y="0px"
	 viewBox="0 0 26 27" style="enable-background:new 0 0 26 27;" xml:space="preserve">
<style type="text/css">
	.st0{fill:#82B440;}
</style>
<g id="XMLID_5_">
	<path id="XMLID_12_" class="st0" d="M23.8,7.3c-2.5,1.5-4,3.2-4.7,5.1c0.4-0.2,0.9-0.3,1.5-0.3c1.5,0,2.7,0.5,3.5,1.5
		c0.8,1,1.2,2.2,1.2,3.6c0,0.7-0.1,1.4-0.4,2.1c-0.3,0.7-0.7,1.2-1.2,1.7c-0.5,0.5-1.1,0.9-1.7,1.2c-0.6,0.3-1.3,0.4-2.1,0.4
		c-1.2,0-2.1-0.2-2.9-0.6c-0.8-0.4-1.4-0.9-1.9-1.6c-0.5-0.7-0.8-1.4-1-2.3c-0.2-0.9-0.3-1.8-0.3-2.8c0-1.2,0.2-2.4,0.6-3.5
		c0.4-1.1,1-2.2,1.8-3.1c0.8-1,1.7-1.8,2.8-2.6c1.1-0.7,2.2-1.3,3.5-1.8L23.8,7.3z M10.9,7.3C9.7,8,8.7,8.8,7.9,9.6
		c-0.8,0.8-1.3,1.7-1.7,2.7c0.4-0.2,0.9-0.3,1.5-0.3c1.5,0,2.7,0.5,3.5,1.5c0.8,1,1.2,2.2,1.2,3.6c0,0.7-0.1,1.4-0.4,2.1
		c-0.3,0.7-0.7,1.2-1.2,1.7c-0.5,0.5-1.1,0.9-1.7,1.2c-0.6,0.3-1.4,0.4-2.1,0.4c-1.1,0-2.1-0.2-2.8-0.6c-0.8-0.4-1.4-1-1.9-1.7
		c-0.5-0.7-0.9-1.5-1.1-2.3c-0.2-0.9-0.4-1.8-0.4-2.7c0-1.2,0.2-2.4,0.6-3.5c0.4-1.1,1-2.2,1.8-3.1C4,7.7,4.9,6.9,6,6.1
		s2.2-1.3,3.4-1.8L10.9,7.3z"/>
</g>
</svg>
