<svg xmlns="http://www.w3.org/2000/svg" viewBox="0 0 117.99 24.4"><defs><style>.cls-1{fill:none;stroke:#434345;stroke-linecap:round;stroke-linejoin:round;stroke-width:2px;}</style></defs><g id="OBJECTS"><path class="cls-1" d="M1,1C6.27,1,6.27,5,11.54,5s5.28-4,10.55-4,5.27,4,10.54,4S37.9,1,43.17,1s5.27,4,10.54,4S59,1,64.26,1,69.53,5,74.8,5s5.27-4,10.55-4,5.27,4,10.54,4,5.28-4,10.55-4S111.72,5,117,5"/><path class="cls-1" d="M1,10.2c5.27,0,5.27,4,10.54,4s5.28-4,10.55-4,5.27,4,10.54,4,5.27-4,10.54-4,5.27,4,10.54,4,5.28-4,10.55-4,5.27,4,10.54,4,5.27-4,10.55-4,5.27,4,10.54,4,5.28-4,10.55-4,5.28,4,10.55,4"/><path class="cls-1" d="M1,19.4c5.27,0,5.27,4,10.54,4s5.28-4,10.55-4,5.27,4,10.54,4,5.27-4,10.54-4,5.27,4,10.54,4,5.28-4,10.55-4,5.27,4,10.54,4,5.27-4,10.55-4,5.27,4,10.54,4,5.28-4,10.55-4,5.28,4,10.55,4"/></g></svg>