<svg xmlns="http://www.w3.org/2000/svg" viewBox="0 0 128.87 86.16"><defs><style>.cls-1{fill:#3f3943;}</style></defs><g id="OBJECTS"><path class="cls-1" d="M1.84,66A1.84,1.84,0,1,1,0,67.82,1.84,1.84,0,0,1,1.84,66Z"/><path class="cls-1" d="M1.84,33A1.85,1.85,0,1,1,0,34.83,1.84,1.84,0,0,1,1.84,33Z"/><path class="cls-1" d="M1.84,0A1.85,1.85,0,1,1,0,1.84,1.85,1.85,0,0,1,1.84,0Z"/><path class="cls-1" d="M1.84,82.47A1.85,1.85,0,1,1,0,84.31,1.85,1.85,0,0,1,1.84,82.47Z"/><path class="cls-1" d="M1.84,49.48A1.85,1.85,0,1,1,0,51.33,1.85,1.85,0,0,1,1.84,49.48Z"/><path class="cls-1" d="M1.84,16.49A1.85,1.85,0,1,1,0,18.34,1.85,1.85,0,0,1,1.84,16.49Z"/><circle class="cls-1" cx="17.49" cy="67.82" r="1.84"/><path class="cls-1" d="M17.49,33a1.85,1.85,0,1,1-1.84,1.84A1.84,1.84,0,0,1,17.49,33Z"/><path class="cls-1" d="M17.49,0a1.85,1.85,0,1,1-1.84,1.84A1.85,1.85,0,0,1,17.49,0Z"/><path class="cls-1" d="M17.49,82.47a1.85,1.85,0,1,1-1.84,1.84A1.85,1.85,0,0,1,17.49,82.47Z"/><path class="cls-1" d="M17.49,49.48a1.85,1.85,0,1,1-1.84,1.85A1.85,1.85,0,0,1,17.49,49.48Z"/><path class="cls-1" d="M17.49,16.49a1.85,1.85,0,1,1-1.84,1.85A1.85,1.85,0,0,1,17.49,16.49Z"/><path class="cls-1" d="M33.14,66a1.84,1.84,0,1,1-1.84,1.84A1.84,1.84,0,0,1,33.14,66Z"/><path class="cls-1" d="M33.14,33a1.85,1.85,0,1,1-1.84,1.84A1.84,1.84,0,0,1,33.14,33Z"/><circle class="cls-1" cx="33.14" cy="1.84" r="1.84" transform="translate(8.4 23.97) rotate(-45)"/><circle class="cls-1" cx="33.14" cy="84.31" r="1.84" transform="translate(-49.91 48.13) rotate(-45)"/><path class="cls-1" d="M33.14,49.48a1.85,1.85,0,1,1-1.84,1.85A1.84,1.84,0,0,1,33.14,49.48Z"/><path class="cls-1" d="M33.14,16.49a1.85,1.85,0,1,1-1.84,1.85A1.84,1.84,0,0,1,33.14,16.49Z"/><path class="cls-1" d="M48.79,66a1.84,1.84,0,1,1-1.85,1.84A1.84,1.84,0,0,1,48.79,66Z"/><path class="cls-1" d="M48.79,33a1.85,1.85,0,1,1-1.85,1.84A1.84,1.84,0,0,1,48.79,33Z"/><path class="cls-1" d="M48.79,0a1.85,1.85,0,1,1-1.85,1.84A1.84,1.84,0,0,1,48.79,0Z"/><path class="cls-1" d="M48.79,82.47a1.85,1.85,0,1,1-1.85,1.84A1.84,1.84,0,0,1,48.79,82.47Z"/><path class="cls-1" d="M48.79,49.48a1.85,1.85,0,1,1-1.85,1.85A1.84,1.84,0,0,1,48.79,49.48Z"/><path class="cls-1" d="M48.79,16.49a1.85,1.85,0,1,1-1.85,1.85A1.84,1.84,0,0,1,48.79,16.49Z"/><path class="cls-1" d="M64.44,66a1.84,1.84,0,1,1-1.85,1.84A1.84,1.84,0,0,1,64.44,66Z"/><path class="cls-1" d="M64.44,33a1.85,1.85,0,1,1-1.85,1.84A1.84,1.84,0,0,1,64.44,33Z"/><circle class="cls-1" cx="64.44" cy="1.84" r="1.84" transform="translate(17.57 46.1) rotate(-45)"/><path class="cls-1" d="M64.44,82.47a1.85,1.85,0,1,1-1.85,1.84A1.85,1.85,0,0,1,64.44,82.47Z"/><path class="cls-1" d="M64.44,49.48a1.85,1.85,0,1,1-1.85,1.85A1.85,1.85,0,0,1,64.44,49.48Z"/><path class="cls-1" d="M64.44,16.49a1.85,1.85,0,1,1-1.85,1.85A1.85,1.85,0,0,1,64.44,16.49Z"/><path class="cls-1" d="M80.08,66a1.84,1.84,0,1,1-1.84,1.84A1.84,1.84,0,0,1,80.08,66Z"/><path class="cls-1" d="M80.08,33a1.85,1.85,0,1,1-1.84,1.84A1.84,1.84,0,0,1,80.08,33Z"/><path class="cls-1" d="M80.08,0a1.85,1.85,0,1,1-1.84,1.84A1.85,1.85,0,0,1,80.08,0Z"/><circle class="cls-1" cx="80.08" cy="84.31" r="1.84" transform="translate(-36.11 79.61) rotate(-44.16)"/><circle class="cls-1" cx="80.08" cy="51.33" r="1.84"/><path class="cls-1" d="M80.08,16.49a1.85,1.85,0,1,1-1.84,1.85A1.85,1.85,0,0,1,80.08,16.49Z"/><circle class="cls-1" cx="95.73" cy="67.82" r="1.84"/><path class="cls-1" d="M95.73,33a1.85,1.85,0,1,1-1.84,1.84A1.84,1.84,0,0,1,95.73,33Z"/><path class="cls-1" d="M95.73,0a1.85,1.85,0,1,1-1.84,1.84A1.85,1.85,0,0,1,95.73,0Z"/><path class="cls-1" d="M95.73,82.47a1.85,1.85,0,1,1-1.84,1.84A1.85,1.85,0,0,1,95.73,82.47Z"/><circle class="cls-1" cx="95.73" cy="51.33" r="1.84"/><path class="cls-1" d="M95.73,16.49a1.85,1.85,0,1,1-1.84,1.85A1.85,1.85,0,0,1,95.73,16.49Z"/><path class="cls-1" d="M111.38,66a1.84,1.84,0,1,1-1.84,1.84A1.84,1.84,0,0,1,111.38,66Z"/><path class="cls-1" d="M111.38,33a1.85,1.85,0,1,1-1.84,1.84A1.84,1.84,0,0,1,111.38,33Z"/><path class="cls-1" d="M111.38,0a1.85,1.85,0,1,1-1.84,1.84A1.84,1.84,0,0,1,111.38,0Z"/><path class="cls-1" d="M111.38,82.47a1.85,1.85,0,1,1-1.84,1.84A1.84,1.84,0,0,1,111.38,82.47Z"/><path class="cls-1" d="M111.38,49.48a1.85,1.85,0,1,1-1.84,1.85A1.84,1.84,0,0,1,111.38,49.48Z"/><path class="cls-1" d="M111.38,16.49a1.85,1.85,0,1,1-1.84,1.85A1.84,1.84,0,0,1,111.38,16.49Z"/><path class="cls-1" d="M127,66a1.84,1.84,0,1,1-1.85,1.84A1.84,1.84,0,0,1,127,66Z"/><path class="cls-1" d="M127,33a1.85,1.85,0,1,1-1.85,1.84A1.84,1.84,0,0,1,127,33Z"/><path class="cls-1" d="M127,0a1.85,1.85,0,1,1-1.85,1.84A1.84,1.84,0,0,1,127,0Z"/><path class="cls-1" d="M127,82.47a1.85,1.85,0,1,1-1.85,1.84A1.84,1.84,0,0,1,127,82.47Z"/><path class="cls-1" d="M127,49.48a1.85,1.85,0,1,1-1.85,1.85A1.84,1.84,0,0,1,127,49.48Z"/><path class="cls-1" d="M127,16.49a1.85,1.85,0,1,1-1.85,1.85A1.84,1.84,0,0,1,127,16.49Z"/></g></svg>