<svg xmlns="http://www.w3.org/2000/svg" viewBox="0 0 125.95 17.64"><defs><style>.cls-1{fill:#bbeace;}</style></defs><g id="OBJECTS"><polygon class="cls-1" points="10.41 0 0 17.64 3.06 17.64 13.47 0 10.41 0"/><polygon class="cls-1" points="21.66 0 11.25 17.64 14.31 17.64 24.72 0 21.66 0"/><polygon class="cls-1" points="32.91 0 22.5 17.64 25.56 17.64 35.97 0 32.91 0"/><polygon class="cls-1" points="44.15 0 33.74 17.64 36.81 17.64 47.22 0 44.15 0"/><polygon class="cls-1" points="55.4 0 44.99 17.64 48.05 17.64 58.47 0 55.4 0"/><polygon class="cls-1" points="66.65 0 56.24 17.64 59.3 17.64 69.71 0 66.65 0"/><polygon class="cls-1" points="77.9 0 67.49 17.64 70.55 17.64 80.96 0 77.9 0"/><polygon class="cls-1" points="89.14 0 78.73 17.64 81.8 17.64 92.21 0 89.14 0"/><polygon class="cls-1" points="100.39 0 89.98 17.64 93.05 17.64 103.46 0 100.39 0"/><polygon class="cls-1" points="111.64 0 101.23 17.64 104.29 17.64 114.7 0 111.64 0"/><polygon class="cls-1" points="122.89 0 112.48 17.64 115.54 17.64 125.95 0 122.89 0"/></g></svg>